<?xml version="1.0" standalone="no"?><!DOCTYPE svg PUBLIC "-//W3C//DTD SVG 1.1//EN" "http://www.w3.org/Graphics/SVG/1.1/DTD/svg11.dtd"><svg t="1687148790064" class="icon" viewBox="0 0 1024 1024" version="1.1" xmlns="http://www.w3.org/2000/svg" p-id="1140" xmlns:xlink="http://www.w3.org/1999/xlink" width="200" height="200"><path d="M154.820802 10.679202h714.358396c70.067682 0 127.393181 57.323452 127.393181 127.392157v747.859328c0 70.067682-57.326522 127.392157-127.393181 127.392157h-714.358396c-70.068705 0-127.394204-57.325499-127.394204-127.392157V138.071359c0.001023-70.068705 57.325499-127.392157 127.394204-127.392157z m249.019019 431.240836l-75.565895 100.55089c-11.464076 15.270768-7.788368 36.516609 8.236575 47.44652 16.006524 10.945261 38.303298 7.425095 49.77556-7.8293l75.575105-100.551913c11.4651-15.269745 7.789391-36.523772-8.233505-47.463916-16.01778-10.937075-38.304321-7.414862-49.78784 7.847719z m-127.504721 0l-75.575105 100.55089c-11.472263 15.270768-7.789391 36.516609 8.227366 47.44652 16.022896 10.945261 38.312507 7.425095 49.786817-7.8293l75.562825-100.551913c11.467146-15.269745 7.790415-36.523772-8.232482-47.463916-16.007547-10.937075-38.304321-7.414862-49.769421 7.847719zM168.708063 678.372882v102.713132h686.595131V678.372882H168.708063z m0-435.451732v102.713131h686.595131V242.92115H168.708063z" fill="#231815" p-id="1141"></path></svg>