<?xml version="1.0" standalone="no"?><!DOCTYPE svg PUBLIC "-//W3C//DTD SVG 1.1//EN" "http://www.w3.org/Graphics/SVG/1.1/DTD/svg11.dtd"><svg t="1687148812844" class="icon" viewBox="0 0 1024 1024" version="1.1" xmlns="http://www.w3.org/2000/svg" p-id="1877" xmlns:xlink="http://www.w3.org/1999/xlink" width="200" height="200"><path d="M146.285714 1024h731.428572a146.285714 146.285714 0 0 0 126.537143-73.142857H19.748571A146.285714 146.285714 0 0 0 146.285714 1024zM877.714286 0H146.285714A146.285714 146.285714 0 0 0 0 146.285714v731.428572h1024V146.285714A146.285714 146.285714 0 0 0 877.714286 0z m91.428571 822.857143H54.857143V146.285714A91.428571 91.428571 0 0 1 146.285714 54.857143h731.428572a91.428571 91.428571 0 0 1 91.428571 91.428571z" p-id="1878"></path><path d="M677.211429 463.908571l-229.942858 151.771429a32.182857 32.182857 0 0 1-44.525714-9.142857 33.097143 33.097143 0 0 1-5.394286-17.737143V285.348571a32.091429 32.091429 0 0 1 49.92-26.788571l229.942858 151.68a32.274286 32.274286 0 0 1 9.142857 44.617143 36.571429 36.571429 0 0 1-9.142857 9.142857z" p-id="1879"></path></svg>