<?xml version="1.0" standalone="no"?><!DOCTYPE svg PUBLIC "-//W3C//DTD SVG 1.1//EN" "http://www.w3.org/Graphics/SVG/1.1/DTD/svg11.dtd"><svg t="1687148809905" class="icon" viewBox="0 0 1024 1024" version="1.1" xmlns="http://www.w3.org/2000/svg" p-id="1732" xmlns:xlink="http://www.w3.org/1999/xlink" width="200" height="200"><path d="M0 0h1024v1024H0z" fill="#F7F7F7" fill-opacity=".01" p-id="1733"></path><path d="M512 136.5504a375.4496 375.4496 0 1 1 0 750.9504 375.4496 375.4496 0 0 1 0-750.9504z m116.5312 167.5264a34.1504 34.1504 0 0 0-49.8688 24.064l-29.3376 166.4a128 128 0 0 0-202.8544 70.656l-1.6896 8.192-1.2288 8.3456a128 128 0 0 0 253.3376 36.1472l39.3728-223.232 47.4112 35.5328 4.7104 2.9184a34.1504 34.1504 0 0 0 36.1984-57.6l-91.8528-68.7104z" fill="#61666D" p-id="1734"></path></svg>