<?xml version="1.0" standalone="no"?><!DOCTYPE svg PUBLIC "-//W3C//DTD SVG 1.1//EN" "http://www.w3.org/Graphics/SVG/1.1/DTD/svg11.dtd"><svg t="1687056103236" class="icon" viewBox="0 0 1024 1024" version="1.1" xmlns="http://www.w3.org/2000/svg" p-id="1391" xmlns:xlink="http://www.w3.org/1999/xlink" width="200" height="200"><path d="M507.733333 1000.533333c-125.866667 0-256-64-320-162.133333-53.333333-81.066667-59.733333-170.666667-14.933333-256 53.333333-102.4 46.933333-138.666667 38.4-189.866667-2.133333-8.533333-2.133333-17.066667-4.266667-27.733333-10.666667-76.8 12.8-106.666667 34.133334-117.333333 25.6-14.933333 57.6-8.533333 89.6 17.066666 42.666667 34.133333 70.4 53.333333 81.066666 57.6 2.133333-2.133333 6.4-6.4 10.666667-14.933333 10.666667-17.066667 36.266667-72.533333 25.6-213.333333-2.133333-40.533333 17.066667-57.6 27.733333-64 12.8-6.4 38.4-14.933333 74.666667 10.666666 134.4 91.733333 136.533333 226.133333 140.8 324.266667v23.466667c0 21.333333 8.533333 40.533333 12.8 44.8 0 0 12.8-4.266667 34.133333-32 17.066667-23.466667 40.533333-51.2 72.533334-44.8 32 6.4 42.666667 38.4 49.066666 61.866666 0 2.133333 2.133333 6.4 2.133334 8.533334 44.8 130.133333 25.6 290.133333-51.2 405.333333-64 98.133333-162.133333 157.866667-275.2 168.533333h-27.733334zM270.933333 305.066667c-2.133333 4.266667-6.4 21.333333-2.133333 53.333333 2.133333 8.533333 2.133333 17.066667 4.266667 25.6 10.666667 57.6 19.2 108.8-44.8 230.4-42.666667 81.066667-17.066667 147.2 10.666666 189.866667 59.733333 87.466667 179.2 140.8 294.4 132.266666 119.466667-10.666667 189.866667-81.066667 226.133334-140.8 66.133333-100.266667 83.2-238.933333 42.666666-349.866666 0-2.133333-2.133333-6.4-4.266666-10.666667 0-2.133333-2.133333-4.266667-2.133334-8.533333-2.133333 2.133333-6.4 6.4-8.533333 12.8-38.4 46.933333-74.666667 64-106.666667 53.333333-38.4-12.8-55.466667-64-55.466666-102.4v-23.466667c-2.133333-93.866667-6.4-200.533333-113.066667-273.066666-2.133333 0-2.133333-2.133333-4.266667-2.133334 10.666667 145.066667-14.933333 215.466667-36.266666 249.6-12.8 19.2-38.4 59.733333-85.333334 40.533334-25.6-10.666667-68.266667-42.666667-100.266666-68.266667-6.4-6.4-10.666667-8.533333-14.933334-8.533333z" fill="#ffffff" p-id="1392"></path><path d="M450.133333 576c-14.933333-10.666667-27.733333-6.4-23.466666 23.466667 4.266667 23.466667 10.666667 34.133333-12.8 76.8-32 64 38.4 125.866667 108.8 119.466666 83.2-8.533333 119.466667-102.4 96-172.8-2.133333-8.533333-6.4-27.733333-23.466667-4.266666-25.6 29.866667-34.133333 2.133333-34.133333-10.666667-2.133333-32 0-74.666667-40.533334-104.533333-10.666667-6.4-17.066667-4.266667-17.066666 8.533333 2.133333 42.666667-4.266667 64-10.666667 74.666667s-10.666667 10.666667-14.933333 8.533333c-6.4-2.133333-23.466667-14.933333-27.733334-19.2z" fill="#ffffff" p-id="1393"></path></svg>