<?xml version="1.0" standalone="no"?><!DOCTYPE svg PUBLIC "-//W3C//DTD SVG 1.1//EN" "http://www.w3.org/Graphics/SVG/1.1/DTD/svg11.dtd"><svg t="1682646293513" class="icon" viewBox="0 0 1024 1024" version="1.1" xmlns="http://www.w3.org/2000/svg" p-id="2639" xmlns:xlink="http://www.w3.org/1999/xlink" width="17" height="17"><path d="M989.024 924.416l-189.536-189.248c53.216-72.736 82.304-161.088 82.304-251.2 0-235.072-191.552-426.336-427.008-426.336-235.456 0-427.04 191.264-427.04 426.336 0 235.104 191.584 426.368 427.04 426.368 64.128 0 125.952-14.112 183.744-41.92 12.256-5.888 17.408-20.576 11.52-32.832-5.92-12.256-20.576-17.376-32.896-11.488-51.072 24.576-105.696 37.024-162.336 37.024-208.32 0-377.76-169.216-377.76-377.184 0-207.968 169.44-377.152 377.76-377.152 208.288 0 377.728 169.216 377.728 377.152 0 86.24-30.144 170.688-84.864 237.792-8 9.792-7.264 24 1.664 32.928l204.864 204.544c4.8 4.8 11.104 7.2 17.408 7.2 6.304 0 12.608-2.4 17.408-7.2C998.656 949.6 998.656 934.016 989.024 924.416z" fill="#03A9F4" p-id="2640"></path></svg>